<svg width="129" height="30" viewBox="0 0 129 30" fill="none" xmlns="http://www.w3.org/2000/svg">
<path d="M33.5703 28.9996H28.4531V12.32L19.4492 28.1598C19.2279 28.5634 18.9154 28.8694 18.5117 29.0778C18.1211 29.2861 17.6979 29.3903 17.2422 29.3903C16.7995 29.3903 16.3828 29.2861 15.9922 29.0778C15.6146 28.8694 15.3151 28.5634 15.0938 28.1598L6.05078 12.32V28.9996H0.972656V3.15979C0.972656 2.57386 1.14193 2.05302 1.48047 1.59729C1.83203 1.14157 2.28776 0.835576 2.84766 0.679326C3.12109 0.614222 3.39453 0.59469 3.66797 0.620732C3.94141 0.633753 4.20182 0.692347 4.44922 0.796513C4.70964 0.887659 4.94401 1.02438 5.15234 1.20667C5.36068 1.37594 5.53646 1.58427 5.67969 1.83167L17.2422 21.9293L28.8047 1.83167C29.1042 1.33688 29.5143 0.985315 30.0352 0.776982C30.569 0.568649 31.1224 0.536097 31.6953 0.679326C32.2422 0.835576 32.6914 1.14157 33.043 1.59729C33.3945 2.05302 33.5703 2.57386 33.5703 3.15979V28.9996Z" fill="white"/>
<path d="M61.4805 14.8785C61.4805 15.5817 61.3568 16.3434 61.1094 17.1637C60.862 17.971 60.4583 18.7262 59.8984 19.4293C59.3516 20.1194 58.6289 20.6989 57.7305 21.1676C56.8451 21.6364 55.7643 21.8707 54.4883 21.8707H45.3281V17.0465H54.4883C55.1784 17.0465 55.7122 16.8382 56.0898 16.4215C56.4674 15.9918 56.6562 15.4645 56.6562 14.8395C56.6562 14.1754 56.4414 13.6546 56.0117 13.277C55.5951 12.8994 55.0872 12.7106 54.4883 12.7106H45.3281C44.638 12.7106 44.1042 12.9254 43.7266 13.3551C43.349 13.7718 43.1602 14.2926 43.1602 14.9176V22.0075C43.1602 22.6845 43.3685 23.2119 43.7852 23.5895C44.2148 23.9671 44.7422 24.1559 45.3672 24.1559H54.4883V28.9996H45.3281C44.625 28.9996 43.8633 28.8759 43.043 28.6285C42.2357 28.3811 41.4805 27.984 40.7773 27.4371C40.0872 26.8772 39.5078 26.1546 39.0391 25.2692C38.5703 24.3707 38.3359 23.2835 38.3359 22.0075V14.8785C38.3359 14.1754 38.4596 13.4202 38.707 12.6129C38.9544 11.7926 39.3516 11.0374 39.8984 10.3473C40.4583 9.64417 41.181 9.05823 42.0664 8.58948C42.9648 8.12073 44.0521 7.88636 45.3281 7.88636H54.4883C55.1914 7.88636 55.9466 8.01005 56.7539 8.25745C57.5742 8.50485 58.3294 8.90849 59.0195 9.46839C59.7227 10.0153 60.3086 10.7379 60.7773 11.6364C61.2461 12.5218 61.4805 13.6025 61.4805 14.8785Z" fill="white"/>
<path d="M84.0977 12.9645H75.2305V28.9996H70.0938V12.9645H63.4922V7.88636H70.0938V0.991826H75.2305V7.88636H84.0977V12.9645Z" fill="white"/>
<path d="M108.023 22.0075C108.023 22.7106 107.9 23.4723 107.652 24.2926C107.405 25.0999 107.001 25.8551 106.441 26.5582C105.895 27.2483 105.172 27.8278 104.273 28.2965C103.388 28.7653 102.307 28.9996 101.031 28.9996H91.8711C91.168 28.9996 90.4062 28.8759 89.5859 28.6285C88.7786 28.3811 88.0234 27.984 87.3203 27.4371C86.6302 26.8772 86.0508 26.1546 85.582 25.2692C85.1133 24.3707 84.8789 23.2835 84.8789 22.0075C84.8789 21.3043 85.0026 20.5426 85.25 19.7223C85.4974 18.902 85.8945 18.1468 86.4414 17.4567C87.0013 16.7535 87.724 16.1676 88.6094 15.6989C89.5078 15.2301 90.5951 14.9957 91.8711 14.9957H101.031V19.8395H91.8711C91.181 19.8395 90.6471 20.0543 90.2695 20.484C89.8919 20.9007 89.7031 21.4215 89.7031 22.0465C89.7031 22.7106 89.918 23.2314 90.3477 23.609C90.7904 23.9736 91.3112 24.1559 91.9102 24.1559H101.031C101.721 24.1559 102.255 23.9476 102.633 23.5309C103.01 23.1142 103.199 22.5934 103.199 21.9684V14.8785C103.199 14.2145 102.991 13.6871 102.574 13.2965C102.171 12.9059 101.656 12.7106 101.031 12.7106H89.8789V7.88636H101.031C101.734 7.88636 102.49 8.01005 103.297 8.25745C104.117 8.50485 104.872 8.90849 105.562 9.46839C106.266 10.0153 106.852 10.7379 107.32 11.6364C107.789 12.5218 108.023 13.6025 108.023 14.8785V22.0075Z" fill="white"/>
<path d="M119.4 3.42151C119.4 3.76917 119.357 4.07972 119.271 4.35315C119.186 4.62659 119.068 4.86878 118.92 5.07972C118.775 5.28675 118.607 5.46448 118.416 5.61292C118.225 5.76136 118.023 5.8844 117.812 5.98206C117.605 6.07581 117.395 6.14417 117.18 6.18714C116.969 6.23011 116.77 6.25159 116.582 6.25159L119.764 8.99964H117.408L114.232 6.25159H113.137V4.72815H116.582C116.773 4.71253 116.947 4.67347 117.104 4.61097C117.264 4.54456 117.4 4.45667 117.514 4.34729C117.631 4.23792 117.721 4.10706 117.783 3.95472C117.846 3.79847 117.877 3.62073 117.877 3.42151V2.46058C117.877 2.37464 117.865 2.31019 117.842 2.26722C117.822 2.22034 117.795 2.18714 117.76 2.16761C117.729 2.14417 117.693 2.1305 117.654 2.12659C117.619 2.12269 117.586 2.12073 117.555 2.12073H112.527V8.99964H111.004V1.36487C111.004 1.2594 111.023 1.15979 111.062 1.06604C111.102 0.972295 111.154 0.890263 111.221 0.819951C111.291 0.749638 111.373 0.694951 111.467 0.655888C111.561 0.616826 111.662 0.597295 111.771 0.597295H117.555C117.895 0.597295 118.182 0.659795 118.416 0.784795C118.65 0.905888 118.84 1.06019 118.984 1.24769C119.133 1.43128 119.238 1.6305 119.301 1.84534C119.367 2.06019 119.4 2.26136 119.4 2.44886V3.42151Z" fill="white"/>
<path d="M128.646 8.99964H121.697C121.588 8.99964 121.486 8.98011 121.393 8.94104C121.299 8.90198 121.217 8.84925 121.146 8.78284C121.08 8.71253 121.027 8.6305 120.988 8.53675C120.949 8.443 120.93 8.34143 120.93 8.23206V0.597295H122.453V7.4762H128.646V8.99964Z" fill="white"/>
</svg>
